<svg xmlns="http://www.w3.org/2000/svg" viewBox="0 0 512 512" role="img" aria-label="Compass logo option 2B">
  <!-- Outer white ring -->
  <circle cx="256" cy="256" r="220" fill="none" stroke="#ffffff" stroke-width="28"></circle>
  <!-- Dark ring -->
  <circle cx="256" cy="256" r="190" fill="none" stroke="#0b3954" stroke-width="20"></circle>
  <!-- Yellow ring -->
  <circle cx="256" cy="256" r="150" fill="none" stroke="#f5b700" stroke-width="30"></circle>

  <!-- Primary 4-point star -->
  <g fill="#ffffff" stroke="#0b3954" stroke-width="6" stroke-linejoin="round">
    <polygon points="256,48 292,210 256,188 220,210"></polygon>
    <polygon points="256,464 292,302 256,324 220,302"></polygon>
    <polygon points="48,256 210,220 188,256 210,292"></polygon>
    <polygon points="464,256 302,220 324,256 302,292"></polygon>
  </g>

  <!-- Secondary 4 small blue points (diagonals) -->
  <g fill="#0b3954" stroke="#ffffff" stroke-width="5" stroke-linejoin="round">
    <polygon points="256,106 270,210 256,202 242,210"></polygon>
    <polygon points="256,406 270,302 256,310 242,302"></polygon>
    <polygon points="106,256 210,242 202,256 210,270"></polygon>
    <polygon points="406,256 302,242 310,256 302,270"></polygon>
  </g>

  <!-- Diagonal circular nodes -->
  <g fill="#0b3954" stroke="#ffffff" stroke-width="8">
    <circle cx="168" cy="168" r="18"></circle>
    <circle cx="344" cy="168" r="18"></circle>
    <circle cx="344" cy="344" r="18"></circle>
    <circle cx="168" cy="344" r="18"></circle>
  </g>

  <!-- Center -->
  <circle cx="256" cy="256" r="50" fill="#0b3954"></circle>
  <circle cx="256" cy="256" r="22" fill="#ffffff"></circle>
</svg>
